<svg version="1.1" id="Layer_1" xmlns="http://www.w3.org/2000/svg" xmlns:xlink="http://www.w3.org/1999/xlink" x="0px" y="0px"
	 width="100%" viewBox="0 0 512 512" enable-background="new 0 0 512 512" xml:space="preserve">
<path fill="#000000" opacity="1.000000" stroke="none" 
	d="
M255.000000,513.000000 
	C170.369629,513.000000 85.739243,513.000000 1.054434,513.000000 
	C1.054434,342.442780 1.054434,171.885559 1.054434,1.000000 
	C83.021721,1.000000 165.043884,1.000000 247.166733,1.192231 
	C239.226013,2.522476 231.116440,3.309800 223.154678,4.857512 
	C182.633530,12.734532 148.007599,31.518488 120.546638,62.437740 
	C78.580673,109.688705 63.710144,164.556290 77.034447,226.453918 
	C86.067451,268.416443 105.009125,306.444061 126.201576,343.351532 
	C157.401459,397.687347 194.664078,447.744263 234.999710,495.575195 
	C240.755768,502.400879 245.846054,510.049011 255.000000,513.000000 
z"/>
<path fill="#000000" opacity="1.000000" stroke="none" 
	d="
M267.000000,1.000000 
	C348.964813,1.000000 430.929657,1.000000 512.947266,1.000000 
	C512.947266,171.558258 512.947266,342.116516 512.947266,513.000000 
	C428.644928,513.000000 344.289459,513.000000 259.755432,512.788757 
	C265.025269,510.897095 268.990204,507.346161 272.665192,503.066376 
	C294.058441,478.152618 314.510406,452.494293 333.828888,425.946350 
	C362.789001,386.148651 389.441071,344.931335 410.515045,300.305023 
	C425.370819,268.846497 437.557770,236.562668 440.980652,201.612167 
	C443.482635,176.064651 440.259552,151.125854 431.911560,126.874237 
	C421.216217,95.803398 403.514313,69.407448 378.769836,47.750507 
	C352.169922,24.469639 321.485107,9.923959 286.570953,4.156703 
	C280.051666,3.079821 273.328644,3.229228 267.000000,1.000000 
z"/>
<path fill="#000000" opacity="1.000000" stroke="none" 
	d="
M305.070557,41.721291 
	C342.170807,54.667431 370.695129,77.615273 389.734192,111.595688 
	C407.242340,142.843765 413.484589,176.304810 406.939331,211.818970 
	C399.272552,253.418518 380.740143,290.619537 359.944519,326.819092 
	C331.233826,376.796600 296.988037,422.896698 260.463745,467.369263 
	C258.176727,470.154022 256.529663,470.888092 253.908646,467.698212 
	C209.601776,413.775208 168.546204,357.636353 136.879074,295.164185 
	C124.431404,270.607697 114.259857,245.157120 108.206650,218.153320 
	C91.069435,141.703003 136.416428,64.155334 211.910080,40.744995 
	C242.821930,31.159332 273.853241,31.670931 305.070557,41.721291 
M167.332657,209.317596 
	C179.533997,256.153168 224.219589,285.416412 271.916107,277.806122 
	C329.213104,268.664032 364.167908,208.785324 343.945435,154.417511 
	C325.491516,104.804283 269.965668,80.723488 220.978424,101.088387 
	C179.290237,118.418938 155.624359,165.675354 167.332657,209.317596 
z"/>
<path fill="#000000" opacity="1.000000" stroke="none" 
	d="
M215.077667,229.936539 
	C198.548981,212.518677 192.409851,192.396255 199.139633,169.539993 
	C205.917755,146.519516 221.847458,132.422089 245.230118,127.169655 
	C277.496674,119.921623 310.975372,143.487244 316.537323,176.062317 
	C321.835815,207.094330 301.821838,239.474182 268.369629,245.633636 
	C248.329056,249.323639 230.448929,244.132996 215.077667,229.936539 
z"/>
</svg>